<?xml version="1.0" encoding="UTF-8"?>
<svg xmlns="http://www.w3.org/2000/svg" viewBox="0 0 1000 500" width="1000" height="500">
  <style>
    .country {
      fill: #e0e0e0;
      stroke: #fff;
      stroke-width: 0.5;
      stroke-linejoin: round;
    }
    .country:hover {
      fill: #c0c0c0;
    }
  </style>

  <!-- Ocean background -->
  <rect x="0" y="0" width="1000" height="500" fill="#f5f5f5"/>

  <!-- ======== NORTH AMERICA ======== -->

  <!-- Canada -->
  <path id="ca" class="country" d="
    M 80,55 L 100,50 120,48 140,52 155,48 170,50 185,55 200,50 215,48 225,52
    L 240,50 250,48 258,53 265,50 275,55 280,52 270,60 275,65 268,70 272,78
    L 265,85 260,80 255,88 248,82 240,87 235,82 228,88 220,84 215,90 208,86
    L 200,92 195,88 188,94 182,90 175,95 168,91 160,96 155,92 148,97 140,93
    L 132,98 125,94 118,98 110,95 105,100 100,97 92,100 85,97 80,102 75,98
    L 70,102 65,98 68,92 72,88 75,82 72,78 76,72 80,68 78,62 80,55 Z
    M 55,60 L 65,55 72,58 68,65 60,68 52,65 55,60 Z
    M 38,52 L 50,48 58,52 55,58 48,60 40,57 38,52 Z
    M 240,42 L 255,38 265,42 262,48 252,52 242,48 240,42 Z
    M 218,38 L 232,35 240,38 237,44 228,46 220,43 218,38 Z
  "/>

  <!-- United States -->
  <path id="us" class="country" d="
    M 75,98 L 80,102 85,97 92,100 100,97 105,100 110,95 118,98 125,94 132,98
    L 140,93 148,97 155,92 160,96 168,91 175,95 182,90 188,94 195,88 200,92
    L 208,86 215,90 220,84 228,88 235,100 240,105 238,112 230,118 225,125
    L 218,130 210,132 205,128 198,132 192,128 186,132 180,130 175,135 168,132
    L 160,135 155,138 148,140 140,138 132,142 125,138 118,142 110,140 105,142
    L 98,140 90,143 85,140 80,145 75,142 70,145 68,140 72,135 78,130 82,125
    L 78,118 75,112 78,105 75,98 Z
    M 30,120 L 42,115 52,118 55,125 50,132 42,135 35,132 28,128 30,120 Z
  "/>

  <!-- Mexico -->
  <path id="mx" class="country" d="
    M 68,140 L 75,142 80,145 85,148 90,155 95,162 100,168 108,172 115,178
    L 118,185 115,190 110,188 105,192 100,195 95,192 90,195 85,198 82,205
    L 78,210 72,208 68,202 65,195 62,188 58,182 55,175 58,168 62,162
    L 65,155 68,148 68,140 Z
  "/>

  <!-- ======== SOUTH AMERICA ======== -->

  <!-- Brazil -->
  <path id="br" class="country" d="
    M 180,255 L 190,248 200,245 210,248 218,252 225,258 230,265 235,272
    L 238,280 240,290 238,300 235,310 230,320 225,328 218,335 210,340
    L 200,345 192,348 185,345 178,340 172,332 168,322 165,312 162,302
    L 160,292 158,282 160,272 165,264 170,258 175,255 180,255 Z
  "/>

  <!-- Argentina -->
  <path id="ar" class="country" d="
    M 155,320 L 162,315 168,322 172,332 175,342 178,352 180,362 178,372
    L 175,382 172,392 168,400 165,408 162,415 160,422 158,428 155,435
    L 150,440 148,435 150,425 152,415 150,405 148,395 145,385 142,375
    L 140,365 138,355 140,345 142,338 145,330 148,325 155,320 Z
  "/>

  <!-- ======== EUROPE ======== -->

  <!-- Norway -->
  <path id="no" class="country" d="
    M 460,52 L 465,48 470,50 475,45 478,50 480,55 478,62 475,68 472,75
    L 470,82 468,88 465,92 462,85 460,78 458,70 457,62 458,55 460,52 Z
  "/>

  <!-- Sweden -->
  <path id="se" class="country" d="
    M 475,45 L 480,42 485,45 488,50 490,55 492,62 490,70 488,78 486,85
    L 484,90 482,95 480,100 478,95 476,88 475,80 473,72 472,65 474,55
    L 475,45 Z
  "/>

  <!-- Great Britain -->
  <path id="gb" class="country" d="
    M 432,72 L 438,68 442,72 445,78 443,85 440,90 437,95 434,98 430,95
    L 428,88 430,82 432,78 432,72 Z
    M 428,96 L 432,100 430,105 426,102 428,96 Z
  "/>

  <!-- France -->
  <path id="fr" class="country" d="
    M 435,108 L 442,105 450,108 455,112 458,118 460,125 458,132 455,138
    L 450,142 445,145 440,142 435,138 432,132 430,125 432,118 434,112
    L 435,108 Z
  "/>

  <!-- Germany -->
  <path id="de" class="country" d="
    M 462,92 L 468,88 475,90 480,95 482,102 480,110 478,118 475,122
    L 470,125 465,122 460,118 458,112 460,105 462,98 462,92 Z
  "/>

  <!-- Poland -->
  <path id="pl" class="country" d="
    M 485,90 L 492,88 500,90 506,94 508,100 506,108 502,114 498,118
    L 492,120 486,118 482,112 480,105 482,98 484,92 485,90 Z
  "/>

  <!-- Spain -->
  <path id="es" class="country" d="
    M 420,135 L 430,132 438,135 445,140 448,148 445,155 440,160 432,162
    L 425,160 418,155 415,148 418,140 420,135 Z
  "/>

  <!-- Italy -->
  <path id="it" class="country" d="
    M 472,128 L 478,125 482,130 484,138 482,145 480,152 478,160 475,168
    L 472,175 470,168 468,160 467,152 468,145 470,138 472,130 472,128 Z
    M 465,178 L 472,175 475,180 472,185 467,182 465,178 Z
  "/>

  <!-- Turkey -->
  <path id="tr" class="country" d="
    M 515,135 L 525,132 535,130 545,132 555,135 562,138 568,142 572,148
    L 568,152 560,155 552,157 542,158 532,157 525,155 518,152 515,148
    L 513,142 515,135 Z
  "/>

  <!-- ======== AFRICA ======== -->

  <!-- Egypt -->
  <path id="eg" class="country" d="
    M 522,170 L 532,168 540,170 545,175 548,182 545,190 540,196 535,200
    L 528,198 522,195 518,188 520,180 522,175 522,170 Z
  "/>

  <!-- South Africa -->
  <path id="za" class="country" d="
    M 498,365 L 508,358 518,355 528,358 535,365 538,375 535,385 528,392
    L 520,395 510,395 502,392 496,385 495,375 498,365 Z
  "/>

  <!-- ======== MIDDLE EAST ======== -->

  <!-- Saudi Arabia -->
  <path id="sa" class="country" d="
    M 555,170 L 565,165 575,168 582,175 588,182 590,192 588,200 582,208
    L 575,212 568,210 560,205 555,198 552,190 553,180 555,170 Z
  "/>

  <!-- ======== ASIA ======== -->

  <!-- Russia -->
  <path id="ru" class="country" d="
    M 510,30 L 530,28 550,25 570,22 590,20 610,18 630,20 650,18 670,20
    L 690,22 710,20 730,22 750,25 770,28 790,30 810,32 830,35 850,38
    L 865,42 870,48 868,55 862,62 855,68 848,72 840,75 830,78 820,80
    L 810,82 800,80 790,78 780,75 770,72 760,68 750,65 740,62 730,60
    L 720,58 710,60 700,65 695,72 698,80 702,88 700,95 695,100 688,105
    L 680,108 670,105 660,100 650,95 640,92 630,90 620,92 610,95 600,98
    L 590,100 580,98 570,95 560,92 550,88 540,85 530,82 520,80 512,78
    L 508,72 510,65 515,58 520,52 518,45 515,38 510,30 Z
  "/>

  <!-- India -->
  <path id="in" class="country" d="
    M 620,160 L 630,155 640,158 648,165 652,175 655,185 656,195 655,205
    L 652,215 648,225 644,235 640,242 636,248 632,252 628,248 625,242
    L 620,235 618,225 615,215 614,205 615,195 618,185 620,175 620,160 Z
  "/>

  <!-- China -->
  <path id="cn" class="country" d="
    M 680,108 L 695,105 710,100 725,98 740,100 755,105 768,110 778,118
    L 785,128 788,138 785,148 780,155 772,160 762,162 752,160 742,158
    L 732,155 722,152 712,150 702,148 692,150 685,155 680,160 675,165
    L 670,160 668,152 670,145 672,138 675,130 678,122 680,115 680,108 Z
  "/>

  <!-- Japan -->
  <path id="jp" class="country" d="
    M 810,115 L 815,110 820,112 822,118 820,125 818,132 815,138 812,145
    L 808,150 805,145 803,138 805,130 808,122 810,115 Z
    M 800,150 L 805,148 808,152 806,158 802,160 798,156 800,150 Z
    M 818,100 L 822,98 825,102 823,108 818,108 816,104 818,100 Z
  "/>

  <!-- South Korea -->
  <path id="kr" class="country" d="
    M 790,128 L 795,124 800,128 802,135 800,142 796,148 792,145 788,140
    L 786,135 788,130 790,128 Z
  "/>

  <!-- Thailand -->
  <path id="th" class="country" d="
    M 700,195 L 706,190 712,192 715,198 716,205 714,212 712,220 710,228
    L 706,232 702,228 700,220 698,212 698,205 700,198 700,195 Z
  "/>

  <!-- Indonesia -->
  <path id="id" class="country" d="
    M 715,272 L 725,268 735,270 742,274 748,270 756,272 762,275 770,272
    L 778,275 785,278 790,282 785,286 778,288 770,286 762,288 754,286
    L 746,284 738,286 730,284 722,282 716,280 715,275 715,272 Z
    M 795,275 L 802,272 810,275 815,280 812,285 805,288 798,285 795,280
    L 795,275 Z
    M 820,278 L 828,275 835,278 838,284 835,290 828,292 822,288 820,282
    L 820,278 Z
  "/>

  <!-- ======== OCEANIA ======== -->

  <!-- Australia -->
  <path id="au" class="country" d="
    M 790,320 L 805,312 820,308 838,310 855,315 868,322 878,332 882,345
    L 880,358 875,370 868,378 858,385 845,390 832,392 818,390 805,385
    L 795,378 788,368 785,355 784,342 786,330 790,320 Z
    M 855,388 L 862,392 865,400 860,405 855,400 855,388 Z
  "/>

  <!-- ======== ADDITIONAL BACKGROUND COUNTRIES ======== -->

  <!-- Greenland -->
  <path class="country" d="
    M 280,18 L 300,15 318,18 332,25 340,35 338,45 330,52 318,55 305,52
    L 292,48 282,42 278,35 278,25 280,18 Z
  "/>

  <!-- Iceland -->
  <path class="country" d="
    M 395,48 L 405,45 412,48 415,55 410,58 402,58 396,55 395,48 Z
  "/>

  <!-- Ireland -->
  <path class="country" d="
    M 420,80 L 426,77 430,80 430,87 426,92 422,90 418,85 420,80 Z
  "/>

  <!-- Portugal -->
  <path class="country" d="
    M 412,138 L 416,135 420,138 420,148 418,155 414,158 412,152 410,145 412,138 Z
  "/>

  <!-- Ukraine -->
  <path class="country" d="
    M 510,88 L 520,85 530,88 538,92 542,100 540,108 535,115 528,118
    L 520,118 512,115 508,108 508,100 510,92 510,88 Z
  "/>

  <!-- Finland -->
  <path class="country" d="
    M 495,38 L 500,35 505,38 507,45 506,55 504,65 502,72 498,78
    L 494,75 492,68 491,60 492,50 494,42 495,38 Z
  "/>

  <!-- Romania -->
  <path class="country" d="
    M 500,118 L 508,115 515,118 518,125 515,132 510,135 504,132 500,125
    L 500,118 Z
  "/>

  <!-- Greece -->
  <path class="country" d="
    M 498,145 L 505,142 510,145 512,152 510,160 506,165 500,162 496,155
    L 496,148 498,145 Z
  "/>

  <!-- Morocco -->
  <path class="country" d="
    M 418,168 L 428,165 435,168 438,175 435,182 428,185 420,182 416,175
    L 418,168 Z
  "/>

  <!-- Algeria -->
  <path class="country" d="
    M 440,168 L 455,165 465,168 470,178 468,188 462,195 452,198 442,195
    L 436,188 435,178 440,168 Z
  "/>

  <!-- Libya -->
  <path class="country" d="
    M 475,170 L 490,168 500,172 505,180 505,192 500,202 492,205 482,202
    L 475,195 472,185 472,178 475,170 Z
  "/>

  <!-- Nigeria -->
  <path class="country" d="
    M 460,228 L 470,225 478,228 482,235 480,245 475,252 468,255 460,252
    L 456,245 456,238 458,232 460,228 Z
  "/>

  <!-- DR Congo -->
  <path class="country" d="
    M 500,260 L 512,255 522,258 528,265 530,275 528,285 522,292 512,295
    L 502,292 496,285 495,275 496,268 500,260 Z
  "/>

  <!-- Kenya -->
  <path class="country" d="
    M 540,260 L 548,256 555,260 558,268 555,278 548,282 540,278 538,270
    L 540,260 Z
  "/>

  <!-- Tanzania -->
  <path class="country" d="
    M 535,285 L 545,282 554,285 558,295 555,305 548,310 538,308 534,298
    L 534,290 535,285 Z
  "/>

  <!-- Iran -->
  <path class="country" d="
    M 575,135 L 588,132 598,135 605,142 608,152 605,160 598,165 590,168
    L 580,165 575,158 572,150 573,142 575,135 Z
  "/>

  <!-- Pakistan -->
  <path class="country" d="
    M 610,148 L 622,145 630,150 633,158 630,168 624,175 618,178 610,175
    L 606,168 605,160 608,152 610,148 Z
  "/>

  <!-- Afghanistan -->
  <path class="country" d="
    M 618,132 L 628,128 636,132 640,140 637,148 630,152 622,148 618,140
    L 618,132 Z
  "/>

  <!-- Myanmar -->
  <path class="country" d="
    M 688,178 L 695,175 700,180 702,188 700,198 696,205 690,208 686,202
    L 684,195 685,185 688,178 Z
  "/>

  <!-- Vietnam -->
  <path class="country" d="
    M 718,185 L 724,182 728,188 730,198 728,208 725,218 720,225 716,220
    L 714,210 715,200 716,192 718,185 Z
  "/>

  <!-- Philippines -->
  <path class="country" d="
    M 770,205 L 775,200 780,204 782,212 780,222 776,228 772,225 768,218
    L 768,210 770,205 Z
  "/>

  <!-- Malaysia -->
  <path class="country" d="
    M 720,255 L 730,252 738,255 740,262 736,268 728,268 722,265 720,258
    L 720,255 Z
  "/>

  <!-- Mongolia -->
  <path class="country" d="
    M 700,72 L 718,68 735,70 748,75 755,82 752,90 742,95 728,98
    L 715,95 705,90 698,82 700,72 Z
  "/>

  <!-- Kazakhstan -->
  <path class="country" d="
    M 580,62 L 600,58 618,60 632,65 640,72 642,82 638,90 628,95
    L 615,98 602,95 590,90 582,82 578,72 580,62 Z
  "/>

  <!-- Colombia -->
  <path class="country" d="
    M 140,218 L 150,215 158,218 162,225 165,235 162,242 155,248 148,248
    L 140,245 136,238 135,228 138,222 140,218 Z
  "/>

  <!-- Peru -->
  <path class="country" d="
    M 140,250 L 150,248 158,252 162,262 160,272 155,282 148,288 140,285
    L 135,278 132,268 134,258 140,250 Z
  "/>

  <!-- Venezuela -->
  <path class="country" d="
    M 155,210 L 165,205 175,208 182,215 185,222 182,230 175,235 165,235
    L 158,230 155,222 155,215 155,210 Z
  "/>

  <!-- Chile -->
  <path class="country" d="
    M 135,290 L 140,288 144,295 145,308 144,322 142,335 140,348 138,362
    L 136,375 134,388 132,400 130,412 128,425 126,438 124,445 120,442
    L 122,430 124,418 126,405 128,392 130,378 132,365 134,350 135,335
    L 136,320 136,305 135,295 135,290 Z
  "/>

  <!-- Bolivia -->
  <path class="country" d="
    M 165,290 L 175,288 182,292 185,300 182,310 178,318 170,320 162,315
    L 158,308 158,298 162,292 165,290 Z
  "/>

  <!-- Paraguay -->
  <path class="country" d="
    M 185,310 L 195,308 200,315 200,325 195,332 188,335 182,330 180,322
    L 182,315 185,310 Z
  "/>

  <!-- Uruguay -->
  <path class="country" d="
    M 198,340 L 205,338 210,342 210,350 206,355 200,358 196,352 195,345
    L 198,340 Z
  "/>

  <!-- Cuba -->
  <path class="country" d="
    M 140,185 L 152,182 162,185 168,190 165,195 155,198 145,196 138,192
    L 140,185 Z
  "/>

  <!-- Central America (generic) -->
  <path class="country" d="
    M 100,198 L 108,195 115,198 120,205 125,212 128,218 125,222 118,225
    L 112,222 108,215 105,208 100,202 100,198 Z
  "/>

  <!-- Papua New Guinea -->
  <path class="country" d="
    M 848,278 L 858,275 868,278 872,285 868,292 860,295 852,292 848,285
    L 848,278 Z
  "/>

  <!-- New Zealand -->
  <path class="country" d="
    M 908,378 L 912,372 918,375 920,382 918,390 914,395 910,392 906,385
    L 908,378 Z
    M 912,398 L 918,395 922,400 920,408 916,412 912,408 910,402 912,398 Z
  "/>

  <!-- Madagascar -->
  <path class="country" d="
    M 555,330 L 560,325 565,328 567,338 565,348 560,355 555,352 552,342
    L 553,335 555,330 Z
  "/>

  <!-- Sudan -->
  <path class="country" d="
    M 520,205 L 532,202 540,208 542,218 540,228 535,235 525,238 518,232
    L 515,222 516,212 520,205 Z
  "/>

  <!-- Ethiopia -->
  <path class="country" d="
    M 540,232 L 550,228 558,232 562,242 558,252 550,256 542,252 538,242
    L 540,232 Z
  "/>

  <!-- Angola -->
  <path class="country" d="
    M 480,290 L 492,288 500,292 502,302 498,312 490,318 480,315 476,305
    L 476,295 480,290 Z
  "/>

  <!-- Mozambique -->
  <path class="country" d="
    M 540,315 L 548,312 554,318 556,328 554,340 548,348 540,345 536,335
    L 536,325 538,318 540,315 Z
  "/>

  <!-- Somalia -->
  <path class="country" d="
    M 560,235 L 568,232 575,238 578,248 575,260 570,268 562,265 558,255
    L 558,245 560,235 Z
  "/>

  <!-- Niger -->
  <path class="country" d="
    M 445,210 L 458,208 468,212 470,222 465,228 455,230 445,228 440,220
    L 442,215 445,210 Z
  "/>

  <!-- Mali -->
  <path class="country" d="
    M 420,205 L 435,202 442,208 442,218 438,225 428,228 420,225 416,218
    L 418,210 420,205 Z
  "/>

  <!-- Mauritania -->
  <path class="country" d="
    M 400,192 L 412,188 420,192 422,202 418,208 408,210 400,206 396,198
    L 400,192 Z
  "/>

  <!-- Iraq -->
  <path class="country" d="
    M 555,140 L 565,138 572,142 575,150 572,158 565,162 558,158 554,150
    L 555,140 Z
  "/>

  <!-- Uzbekistan -->
  <path class="country" d="
    M 598,75 L 610,72 620,75 624,82 620,90 612,92 604,88 600,82 598,75 Z
  "/>

  <!-- Nepal -->
  <path class="country" d="
    M 640,155 L 652,152 660,158 658,165 648,168 640,164 638,158 640,155 Z
  "/>

  <!-- Bangladesh -->
  <path class="country" d="
    M 655,178 L 662,175 668,180 668,188 664,194 658,192 654,186 655,178 Z
  "/>

  <!-- Sri Lanka -->
  <path class="country" d="
    M 635,252 L 640,248 644,252 644,260 640,265 636,260 635,252 Z
  "/>

  <!-- Cambodia -->
  <path class="country" d="
    M 720,228 L 728,225 734,230 732,238 726,242 720,238 718,232 720,228 Z
  "/>

  <!-- Laos -->
  <path class="country" d="
    M 712,190 L 718,186 724,190 724,200 720,208 714,205 712,198 712,190 Z
  "/>

  <!-- Taiwan -->
  <path class="country" d="
    M 785,175 L 789,170 793,175 792,182 788,186 784,182 785,175 Z
  "/>

</svg>
