<svg xmlns="http://www.w3.org/2000/svg" viewBox="0 0 200 245">
  <!-- Blue border -->
  <polygon points="10,10 175,95 100,95 175,205 10,205" fill="#003893" stroke="#003893" stroke-width="0"/>
  <!-- Red inner -->
  <polygon points="20,20 160,88 95,88 160,195 20,195" fill="#DC143C"/>
  <!-- White moon (crescent) in lower triangle -->
  <circle cx="70" cy="155" r="22" fill="#fff"/>
  <circle cx="75" cy="148" r="18" fill="#DC143C"/>
  <!-- Moon rays (simplified) -->
  <polygon points="70,128 67,138 73,138" fill="#fff"/>
  <polygon points="52,135 58,142 55,148" fill="#fff"/>
  <polygon points="88,135 82,142 85,148" fill="#fff"/>
  <!-- White sun (12-pointed star) in upper triangle -->
  <circle cx="65" cy="60" r="14" fill="#fff"/>
  <circle cx="65" cy="60" r="9" fill="#DC143C"/>
  <!-- Sun rays -->
  <polygon points="65,40 63,48 67,48" fill="#fff"/>
  <polygon points="65,80 63,72 67,72" fill="#fff"/>
  <polygon points="45,60 53,58 53,62" fill="#fff"/>
  <polygon points="85,60 77,58 77,62" fill="#fff"/>
  <polygon points="51,46 56,52 53,55" fill="#fff"/>
  <polygon points="79,74 74,68 77,65" fill="#fff"/>
  <polygon points="79,46 74,52 77,55" fill="#fff"/>
  <polygon points="51,74 56,68 53,65" fill="#fff"/>
</svg>
